<?xml version="1.0" encoding="UTF-8"?>
<svg xmlns="http://www.w3.org/2000/svg" xmlns:xlink="http://www.w3.org/1999/xlink" width="320pt" height="320pt" viewBox="0 0 320 320" version="1.1">
  <g id="surface1">
    <path style=" stroke:none;fill-rule:nonzero;fill: #686868;fill-opacity:1;" d="M 86 7.601562 C 69.5 10.253906 59.570312 13.835938 48.300781 21.203125 C 28.324219 34.265625 14.234375 55.300781 9.792969 78.699219 C 8.808594 83.871094 8.5 103.699219 8.5 161.5 C 8.5 231 8.652344 238.097656 10.28125 244.5 C 13.253906 256.199219 17.046875 264.90625 23.132812 274 C 35.175781 292 52.300781 304.21875 74.5 310.660156 C 79.867188 312.214844 87.25 312.4375 144.351562 312.75 C 204.351562 313.078125 208.367188 312.992188 211 311.300781 C 212.546875 310.304688 220.050781 303.898438 227.75 297 C 235.449219 290.101562 246.761719 280.019531 253 274.5 C 259.179688 269.03125 269.601562 259.742188 276 254 C 282.398438 248.257812 292.570312 239.195312 298.449219 234 C 304.351562 228.785156 310.28125 223.214844 311.601562 221.648438 L 314 218.800781 L 314 151.300781 C 314 77.101562 313.917969 75.902344 307.804688 61.199219 C 297.371094 36.121094 276.300781 17.621094 249.300781 9.847656 C 241.5625 7.617188 240.898438 7.597656 165 7.398438 C 122.898438 7.289062 87.375 7.378906 86 7.601562 Z M 240 30.0625 C 267.339844 36.152344 288.09375 58.398438 292.003906 85.800781 C 292.714844 90.800781 292.996094 112.601562 292.800781 148 L 292.5 202.5 L 262.5 203.03125 C 230.800781 203.59375 230.410156 203.648438 220.800781 208.960938 C 208.847656 215.570312 200.867188 225.5 196.511719 239.199219 C 194.15625 246.613281 194 248.449219 194 269.050781 L 194 291 L 140.550781 291 C 105.550781 291 85.269531 290.621094 81.800781 289.898438 C 78.910156 289.300781 72.25 286.800781 67.148438 284.398438 C 59.25 280.683594 56.527344 278.71875 49.601562 271.75 C 43.4375 265.550781 40.5 261.636719 37.78125 256 C 29.921875 239.703125 30.523438 247 30.210938 163.898438 C 29.894531 79.300781 29.773438 80.960938 37.492188 65.300781 C 46.34375 47.34375 61.300781 35.484375 81.5 30.40625 C 87.820312 28.816406 233 28.503906 240 30.0625 Z M 271.5 227.855469 C 263.898438 235.09375 217.085938 277 216.601562 277 C 216.273438 277 216 270.699219 216 263.101562 C 216 245.5 217.367188 240.707031 224.445312 233.5 C 231.851562 225.964844 234.800781 225.191406 256.5 225.085938 L 274.5 225 L 271.5 227.855469 " />
    <path style=" stroke:none;fill-rule:nonzero;fill: #686868;fill-opacity:1;" d="M 91.199219 74.828125 C 84.699219 77.546875 80.289062 81.484375 77.234375 87.300781 C 74.878906 91.78125 74.5 93.699219 74.5 101.199219 C 74.5 109.5 74.636719 110.039062 77.449219 112.949219 C 79.824219 115.40625 81.199219 116 84.5 116 C 91.75 116 96 110.898438 96 102.199219 C 96 96.699219 97.179688 95 101 95 C 105.175781 95 107 97.800781 107 104.199219 C 107 109 107.414062 110.242188 109.898438 112.898438 C 112.285156 115.449219 113.601562 116 117.300781 116 C 125.574219 116 129.683594 110.300781 128.761719 100.101562 C 127.789062 89.300781 122.054688 80.152344 113.5 75.757812 C 107.855469 72.851562 97 72.398438 91.199219 74.828125 " />
    <path style=" stroke:none;fill-rule:nonzero;fill: #686868;fill-opacity:1;" d="M 210.398438 75.394531 C 200.261719 80.097656 194 90.101562 194 101.601562 C 194 110.898438 198.074219 116 205.5 116 C 212.160156 116 216 111.5 216 103.699219 C 216 97 217.265625 95 221.5 95 C 225.71875 95 226.292969 95.898438 227.121094 103.800781 C 227.992188 112.101562 231.308594 116 237.5 116 C 244.925781 116 249 110.898438 249 101.601562 C 249 90.101562 243.226562 80.460938 233.601562 75.894531 C 225.699219 72.144531 217.773438 71.976562 210.398438 75.394531 " />
    <path style=" stroke:none;fill-rule:nonzero;fill: #686868;fill-opacity:1;" d="M 115.898438 141.898438 L 112 145.800781 L 112 157.800781 C 112 172.699219 113.09375 178.519531 117.628906 187.699219 C 129.78125 212.308594 160.5 221.800781 185.601562 208.707031 C 192.480469 205.117188 200.621094 196.300781 204.902344 187.800781 C 210.046875 177.589844 211.285156 171 210.839844 156.199219 L 210.5 144.800781 L 206.75 141.398438 L 203 138 L 119.800781 138 Z M 188.351562 166.550781 C 188.269531 169.851562 187.515625 174.234375 186.691406 176.199219 C 184.503906 181.429688 178.601562 187.519531 173.199219 190.121094 C 166.699219 193.25 156.28125 193.3125 150 190.265625 C 140.21875 185.519531 134 175.699219 134 165 L 134 160 L 188.5 160.5 L 188.351562 166.550781 " />
  </g>
</svg>